<?xml version="1.0" encoding="UTF-8" standalone="no"?>
<!-- Created with Inkscape (http://www.inkscape.org/) -->

<svg
   xmlns:dc="http://purl.org/dc/elements/1.1/"
   xmlns:cc="http://creativecommons.org/ns#"
   xmlns:rdf="http://www.w3.org/1999/02/22-rdf-syntax-ns#"
   xmlns:svg="http://www.w3.org/2000/svg"
   xmlns="http://www.w3.org/2000/svg"
   xmlns:xlink="http://www.w3.org/1999/xlink"
   xmlns:sodipodi="http://sodipodi.sourceforge.net/DTD/sodipodi-0.dtd"
   xmlns:inkscape="http://www.inkscape.org/namespaces/inkscape"
   width="711.61475"
   height="192.67285"
   id="svg2"
   version="1.1"
   inkscape:version="0.47 r22583"
   sodipodi:docname="grails-logo.svg">
  <defs
     id="defs4">
    <linearGradient
       id="linearGradient4503">
      <stop
         style="stop-color:#000000;stop-opacity:1;"
         offset="0"
         id="stop4505" />
      <stop
         style="stop-color:#595959;stop-opacity:1;"
         offset="1"
         id="stop4507" />
    </linearGradient>
    <linearGradient
       inkscape:collect="always"
       id="linearGradient4425">
      <stop
         style="stop-color:#000000;stop-opacity:1;"
         offset="0"
         id="stop4427" />
      <stop
         style="stop-color:#000000;stop-opacity:0;"
         offset="1"
         id="stop4429" />
    </linearGradient>
    <linearGradient
       id="linearGradient3853">
      <stop
         style="stop-color:#adc82b;stop-opacity:1;"
         offset="0"
         id="stop3855" />
      <stop
         style="stop-color:#171a06;stop-opacity:0.8918919;"
         offset="1"
         id="stop3857" />
    </linearGradient>
    <inkscape:perspective
       sodipodi:type="inkscape:persp3d"
       inkscape:vp_x="0 : 526.18109 : 1"
       inkscape:vp_y="0 : 1000 : 0"
       inkscape:vp_z="744.09448 : 526.18109 : 1"
       inkscape:persp3d-origin="372.04724 : 350.78739 : 1"
       id="perspective10" />
    <inkscape:perspective
       id="perspective2902"
       inkscape:persp3d-origin="0.5 : 0.33333333 : 1"
       inkscape:vp_z="1 : 0.5 : 1"
       inkscape:vp_y="0 : 1000 : 0"
       inkscape:vp_x="0 : 0.5 : 1"
       sodipodi:type="inkscape:persp3d" />
    <inkscape:perspective
       id="perspective2844"
       inkscape:persp3d-origin="0.5 : 0.33333333 : 1"
       inkscape:vp_z="1 : 0.5 : 1"
       inkscape:vp_y="0 : 1000 : 0"
       inkscape:vp_x="0 : 0.5 : 1"
       sodipodi:type="inkscape:persp3d" />
    <inkscape:perspective
       id="perspective2926"
       inkscape:persp3d-origin="0.5 : 0.33333333 : 1"
       inkscape:vp_z="1 : 0.5 : 1"
       inkscape:vp_y="0 : 1000 : 0"
       inkscape:vp_x="0 : 0.5 : 1"
       sodipodi:type="inkscape:persp3d" />
    <inkscape:perspective
       id="perspective3758"
       inkscape:persp3d-origin="0.5 : 0.33333333 : 1"
       inkscape:vp_z="1 : 0.5 : 1"
       inkscape:vp_y="0 : 1000 : 0"
       inkscape:vp_x="0 : 0.5 : 1"
       sodipodi:type="inkscape:persp3d" />
    <inkscape:perspective
       id="perspective3780"
       inkscape:persp3d-origin="0.5 : 0.33333333 : 1"
       inkscape:vp_z="1 : 0.5 : 1"
       inkscape:vp_y="0 : 1000 : 0"
       inkscape:vp_x="0 : 0.5 : 1"
       sodipodi:type="inkscape:persp3d" />
    <linearGradient
       inkscape:collect="always"
       xlink:href="#linearGradient3853"
       id="linearGradient3859"
       x1="62.058979"
       y1="743.66241"
       x2="-46.185467"
       y2="553.51843"
       gradientUnits="userSpaceOnUse" />
    <filter
       id="filter4077"
       y="-0.25"
       height="1.5"
       inkscape:menu-tooltip="Darkens the edge with an inner blur and adds a flexible glow"
       inkscape:menu="Shadows and Glows"
       inkscape:label="Dark and Glow"
       color-interpolation-filters="sRGB">
      <feGaussianBlur
         id="feGaussianBlur4079"
         stdDeviation="5"
         result="result6" />
      <feComposite
         id="feComposite4081"
         in2="result6"
         result="result8"
         in="SourceGraphic"
         operator="atop" />
      <feComposite
         id="feComposite4083"
         in2="SourceAlpha"
         result="result9"
         operator="over"
         in="result8" />
      <feColorMatrix
         id="feColorMatrix4085"
         values="1 0 0 0 0 0 1 0 0 0 0 0 1 0 0 0 0 0 1 0 "
         result="result10" />
      <feBlend
         id="feBlend4087"
         in2="result6"
         in="result10"
         mode="normal" />
    </filter>
    <inkscape:perspective
       id="perspective4349"
       inkscape:persp3d-origin="0.5 : 0.33333333 : 1"
       inkscape:vp_z="1 : 0.5 : 1"
       inkscape:vp_y="0 : 1000 : 0"
       inkscape:vp_x="0 : 0.5 : 1"
       sodipodi:type="inkscape:persp3d" />
    <inkscape:perspective
       id="perspective4377"
       inkscape:persp3d-origin="0.5 : 0.33333333 : 1"
       inkscape:vp_z="1 : 0.5 : 1"
       inkscape:vp_y="0 : 1000 : 0"
       inkscape:vp_x="0 : 0.5 : 1"
       sodipodi:type="inkscape:persp3d" />
    <linearGradient
       inkscape:collect="always"
       xlink:href="#linearGradient3853-6"
       id="linearGradient3859-2"
       x1="62.058979"
       y1="743.66241"
       x2="-46.185467"
       y2="553.51843"
       gradientUnits="userSpaceOnUse" />
    <linearGradient
       id="linearGradient3853-6">
      <stop
         style="stop-color:#adc82b;stop-opacity:1;"
         offset="0"
         id="stop3855-0" />
      <stop
         style="stop-color:#171a06;stop-opacity:0.8918919;"
         offset="1"
         id="stop3857-4" />
    </linearGradient>
    <filter
       id="filter4077-9"
       y="-0.25"
       height="1.5"
       inkscape:menu-tooltip="Darkens the edge with an inner blur and adds a flexible glow"
       inkscape:menu="Shadows and Glows"
       inkscape:label="Dark and Glow"
       color-interpolation-filters="sRGB">
      <feGaussianBlur
         id="feGaussianBlur4079-4"
         stdDeviation="5"
         result="result6" />
      <feComposite
         id="feComposite4081-6"
         in2="result6"
         result="result8"
         in="SourceGraphic"
         operator="atop" />
      <feComposite
         id="feComposite4083-0"
         in2="SourceAlpha"
         result="result9"
         operator="over"
         in="result8" />
      <feColorMatrix
         id="feColorMatrix4085-3"
         values="1 0 0 0 0 0 1 0 0 0 0 0 1 0 0 0 0 0 1 0 "
         result="result10" />
      <feBlend
         id="feBlend4087-6"
         in2="result6"
         in="result10"
         mode="normal" />
    </filter>
    <linearGradient
       inkscape:collect="always"
       xlink:href="#linearGradient4425"
       id="linearGradient4431"
       x1="19.79899"
       y1="591.65332"
       x2="19.79899"
       y2="755.72461"
       gradientUnits="userSpaceOnUse" />
    <filter
       inkscape:collect="always"
       id="filter4457"
       color-interpolation-filters="sRGB">
      <feGaussianBlur
         inkscape:collect="always"
         stdDeviation="1.6232746"
         id="feGaussianBlur4459" />
    </filter>
    <linearGradient
       inkscape:collect="always"
       xlink:href="#linearGradient3853"
       id="linearGradient4468"
       gradientUnits="userSpaceOnUse"
       x1="62.058979"
       y1="743.66241"
       x2="-46.185467"
       y2="553.51843" />
    <linearGradient
       inkscape:collect="always"
       xlink:href="#linearGradient4425"
       id="linearGradient4470"
       gradientUnits="userSpaceOnUse"
       x1="19.79899"
       y1="591.65332"
       x2="19.79899"
       y2="755.72461" />
    <linearGradient
       inkscape:collect="always"
       xlink:href="#linearGradient4425"
       id="linearGradient4477"
       gradientUnits="userSpaceOnUse"
       x1="19.79899"
       y1="569.04095"
       x2="19.79899"
       y2="761.96252" />
    <linearGradient
       inkscape:collect="always"
       xlink:href="#linearGradient3853"
       id="linearGradient4486"
       gradientUnits="userSpaceOnUse"
       x1="62.058979"
       y1="743.66241"
       x2="-46.185467"
       y2="553.51843" />
    <linearGradient
       inkscape:collect="always"
       xlink:href="#linearGradient4425"
       id="linearGradient4488"
       gradientUnits="userSpaceOnUse"
       x1="19.79899"
       y1="586.92041"
       x2="19.79899"
       y2="761.96252" />
    <linearGradient
       inkscape:collect="always"
       xlink:href="#linearGradient4503"
       id="linearGradient4509"
       x1="949.75403"
       y1="1411.6178"
       x2="949.75403"
       y2="1534.6495"
       gradientUnits="userSpaceOnUse" />
    <filter
       inkscape:collect="always"
       id="filter4527"
       color-interpolation-filters="sRGB">
      <feGaussianBlur
         inkscape:collect="always"
         stdDeviation="3.2465491"
         id="feGaussianBlur4529" />
    </filter>
    <linearGradient
       inkscape:collect="always"
       xlink:href="#linearGradient4503"
       id="linearGradient4542"
       gradientUnits="userSpaceOnUse"
       x1="949.75403"
       y1="1411.6178"
       x2="949.75403"
       y2="1534.6495" />
    <linearGradient
       inkscape:collect="always"
       xlink:href="#linearGradient3853"
       id="linearGradient4544"
       gradientUnits="userSpaceOnUse"
       x1="62.058979"
       y1="743.66241"
       x2="-46.185467"
       y2="553.51843" />
    <linearGradient
       inkscape:collect="always"
       xlink:href="#linearGradient4425"
       id="linearGradient4546"
       gradientUnits="userSpaceOnUse"
       x1="19.79899"
       y1="586.92041"
       x2="19.79899"
       y2="761.96252" />
  </defs>
  <sodipodi:namedview
     id="base"
     pagecolor="#ffffff"
     bordercolor="#666666"
     borderopacity="1.0"
     inkscape:pageopacity="0.0"
     inkscape:pageshadow="2"
     inkscape:zoom="0.70710678"
     inkscape:cx="668.03315"
     inkscape:cy="494.52668"
     inkscape:document-units="px"
     inkscape:current-layer="layer1"
     showgrid="false"
     inkscape:window-width="1920"
     inkscape:window-height="1138"
     inkscape:window-x="-8"
     inkscape:window-y="-8"
     inkscape:window-maximized="1" />
  <metadata
     id="metadata7">
    <rdf:RDF>
      <cc:Work
         rdf:about="">
        <dc:format>image/svg+xml</dc:format>
        <dc:type
           rdf:resource="http://purl.org/dc/dcmitype/StillImage" />
        <dc:title />
      </cc:Work>
    </rdf:RDF>
  </metadata>
  <g
     inkscape:label="Layer 1"
     inkscape:groupmode="layer"
     id="layer1"
     transform="translate(0.09868416,-860.03601)">
    <g
       id="g4531"
       transform="translate(-24.748737,371.23106)">
      <g
         transform="translate(-466.57426,-887.594)"
         id="g2902">
        <path
           sodipodi:nodetypes="cssssssssssssssssssssscssscccccssscccccssssssscccccscccssssssssssssssssccccccccccssssscccsssssssssscsssccccccscccccccccccccccscccccccccssssscccccsccccccccssscscccsscsscsccsscss"
           id="path2904"
           d="m 1167.5006,1411.6178 c -13.2361,0.01 -24.26,3.2892 -31.9131,9.5011 -2.1329,1.7312 -4.9807,4.6907 -6.4912,6.742 -2.7225,3.6971 -4.7974,8.54 -5.5657,12.9886 -1.4956,8.6599 0.1339,16.9093 4.658,23.5885 1.456,2.1496 5.2883,6.0294 7.823,7.9185 5.3588,3.9938 11.5474,7.1053 20.0233,10.0624 4.2177,1.4715 7.454,2.8122 9.5548,3.9593 5.9322,3.2392 9.0442,6.7543 9.7279,10.9999 0.2422,1.5034 -0.048,4.7282 -0.5613,6.2704 -1.6901,5.0787 -6.771,7.9665 -15.646,8.8859 -4.0077,0.4152 -12.6823,-0.5996 -19.223,-2.2454 -3.601,-0.9061 -8.4804,-2.6211 -10.803,-3.798 -0.5134,-0.2602 -1.02,-0.4717 -1.1287,-0.4717 -0.1337,0 -0.203,3.8807 -0.203,12.033 0,11.5038 0.021,12.0376 0.3583,12.2182 0.7045,0.3771 6.3164,1.9117 9.3936,2.5679 4.3446,0.9264 8.0712,1.4181 13.0841,1.7198 3.9945,0.2405 9.2046,0 14.3083,-0.6509 7.3703,-0.9409 13.1435,-2.5746 18.405,-5.2133 9.6661,-4.8478 16.6915,-13.9438 18.7691,-24.2991 2.7082,-13.4974 -1.7904,-25.2441 -12.7854,-33.3701 -3.6934,-2.7296 -9.7394,-5.957 -14.4278,-7.7036 -14.3667,-5.3518 -21.3332,-9.1473 -23.8094,-12.9706 -1.1805,-1.8228 -1.5964,-3.318 -1.6004,-5.7688 -0.01,-1.6951 0.082,-2.3424 0.43,-3.3441 1.5974,-4.5941 6.7817,-7.3532 15.425,-8.2052 1.4685,-0.1448 2.3964,-0.1236 4.013,0.09 4.3732,0.5766 7.5227,1.9063 10.5521,4.4669 l 1.3735,1.1645 4.9685,0 4.9745,0 0.2747,-0.9078 c 0.1495,-0.4992 1.6203,-5.1121 3.2725,-10.2476 2.5194,-7.831 2.9639,-9.3779 2.747,-9.5905 -0.5574,-0.5463 -4.2764,-2.2332 -6.6943,-3.0396 -6.3337,-2.1126 -14.9565,-3.3549 -23.2839,-3.3502 l 0,-4e-4 z m -403.82176,0.6091 c -5.44607,0 -10.93685,0.5396 -16.48203,1.6064 -18.32228,3.5252 -33.49953,13.433 -41.90976,27.3686 -4.2948,7.1162 -6.75303,14.6105 -8.17534,24.8783 -0.41637,3.0061 -0.59626,13.117 -0.28668,16.1715 0.78127,7.7071 2.62678,14.444 5.64333,20.6144 2.67997,5.482 5.36228,9.1869 10.12214,13.968 3.49671,3.5123 4.77789,4.597 7.99019,6.7481 8.64791,5.7909 20.35046,9.3026 34.37937,10.3251 5.59688,0.408 15.6931,0.024 22.60904,-0.8599 6.31818,-0.8074 15.4558,-2.8163 22.17314,-4.8789 l 2.00054,-0.6151 0,-31.4054 0,-31.4054 -19.77848,0 c -15.69491,0 -19.77841,0.049 -19.77841,0.2388 -3.2e-4,0.1314 0.9193,4.7749 2.04231,10.3192 l 2.04232,10.0803 4.5983,0 c 2.56321,0 4.72515,0.084 4.8849,0.1851 0.24903,0.1573 0.29336,1.7706 0.33439,12.2779 0.0368,9.4091 -0.007,12.1988 -0.19109,12.5646 -0.4613,0.9029 -3.8894,1.6492 -9.69811,2.1199 -7.25867,0.5883 -16.15989,-1.013 -22.05366,-3.9712 -3.61198,-1.8129 -6.6171,-4.0707 -9.68624,-7.2736 -5.00145,-5.2194 -8.08367,-11.8506 -9.38161,-20.1905 -0.56087,-3.6037 -0.60513,-11.0402 -0.0896,-14.5352 1.31027,-8.8821 4.57682,-16.0169 9.68023,-21.1221 5.37221,-5.3741 11.76342,-8.633 20.16066,-10.2892 3.37558,-0.6659 6.45013,-0.8532 12.21819,-0.7346 9.3417,0.1919 16.6922,1.4449 22.81801,3.8876 1.19192,0.4753 2.20936,0.8243 2.25738,0.7763 0.0815,-0.082 5.60116,-20.7318 5.60747,-20.9787 0,-0.063 -0.66644,-0.4242 -1.48099,-0.8062 -6.1304,-2.8749 -16.89968,-4.6699 -30.24095,-5.0343 -0.77615,-0.021 -1.55102,-0.03 -2.32898,-0.03 l 2e-5,2e-4 z m 84.87051,0.5196 c -10.97371,0.056 -23.30386,0.8862 -31.85333,2.2453 l -1.95875,0.3106 0,58.7381 0,58.7322 13.09014,0 13.09007,0 0.0481,-23.5108 c 0.0436,-20.6484 0.0827,-23.5379 0.33439,-23.7078 0.185,-0.1249 2.35333,-0.1629 6.11506,-0.1076 4.53357,0.067 6.14684,0.161 7.26168,0.4121 7.53489,1.6975 11.3991,6.6925 14.03955,18.1541 1.86069,8.0766 3.91877,15.7037 5.77466,21.4028 0.96701,2.9694 2.23764,6.2668 2.66344,6.9272 l 0.27472,0.43 13.49018,0 c 12.77491,0 13.48087,-0.017 13.34093,-0.3344 -0.72273,-1.6349 -2.91419,-8.7336 -4.55648,-14.7622 -1.10236,-4.0465 -2.69072,-9.765 -3.52935,-12.7079 -0.83856,-2.9428 -1.74423,-6.2203 -2.01247,-7.2796 -0.76009,-3.002 -1.7443,-5.6858 -3.07541,-8.3902 -1.6184,-3.2881 -2.86407,-5.1274 -4.93865,-7.2976 -1.95854,-2.0486 -3.54958,-3.2968 -5.82246,-4.5743 -1.9481,-1.0951 -2.00852,-1.422 -0.37624,-2.0841 3.73026,-1.5133 7.26785,-3.8489 10.46847,-6.9153 4.88014,-4.6755 7.57854,-9.5056 9.00539,-16.1059 0.37476,-1.7332 0.43405,-2.5659 0.43595,-6.115 0.007,-3.4776 -0.0627,-4.4608 -0.42996,-6.4017 -1.79435,-9.483 -6.8441,-16.2809 -15.51462,-20.8892 -6.17488,-3.282 -15.30695,-5.4529 -25.03358,-5.9539 -3.16622,-0.1631 -6.67321,-0.2334 -10.33111,-0.2149 l -3.2e-4,0 z m 197.41415,0.5852 -13.0423,0.054 -13.0423,0.047 -0.048,59.4308 c -0.027,32.687 -0.01,59.5384 0.042,59.6698 0.071,0.1878 2.8655,0.2389 13.0901,0.2389 l 13.0005,0 0,-59.7175 0,-59.7235 0,5e-4 z m 43.1877,0 -13.0423,0.054 -13.0423,0.047 -0.048,59.6698 -0.048,59.6697 28.2345,-0.048 28.2344,-0.047 0,-11.0835 0,-11.0837 -14.8816,-0.047 c -10.6119,-0.034 -14.9612,-0.1108 -15.1444,-0.2628 -0.2141,-0.1777 -0.2627,-8.2904 -0.2627,-48.5385 l 0,-48.3293 4e-4,-7e-4 z m -146.7677,0.01 -0.18512,0.43 c -0.29277,0.6702 -35.92609,118.4447 -35.92609,118.7422 0,0.2229 2.13026,0.2564 13.61565,0.215 l 13.61559,-0.047 1.17638,-4.2997 c 0.64709,-2.3649 2.49192,-9.1453 4.09663,-15.0668 2.68494,-9.9076 2.95339,-10.7803 3.37404,-10.9403 0.49559,-0.1883 33.49925,-0.2461 34.19427,-0.059 0.22785,0.061 0.50497,0.342 0.61509,0.6211 0.11011,0.279 2.13767,6.914 4.50868,14.7441 2.37095,7.8303 4.39646,14.4302 4.4967,14.6667 l 0.17914,0.43 14.16504,0 14.165,0 -0.1314,-0.5255 c -0.38,-1.5249 -36.68355,-118.4688 -36.8397,-118.6706 -0.14551,-0.188 -3.90573,-0.2388 -17.65251,-0.2388 l -17.46739,0 0,0 0,0 0,0 z m -91.14686,19.0319 c 6.61345,-0.022 7.82304,0.096 10.89246,1.069 3.07211,0.9736 5.01831,2.0906 6.8914,3.9653 1.22432,1.2252 1.82622,2.0176 2.41261,3.165 1.42375,2.7859 2.03432,5.2798 2.04236,8.3127 0.0106,3.923 -1.12019,7.355 -3.37404,10.2355 -2.71765,3.4732 -7.07956,5.5849 -13.80071,6.6884 -1.42248,0.2335 -3.523,0.3295 -8.21717,0.3762 -3.46835,0.035 -6.44357,0.022 -6.6167,-0.03 -0.17313,-0.051 -0.36805,-0.2826 -0.42997,-0.5135 -0.0616,-0.2308 -0.11151,-7.5612 -0.11346,-16.291 0,-12.4032 0.0458,-15.9397 0.23294,-16.1893 0.39,-0.5218 3.49122,-0.7667 10.08028,-0.7884 l 0,10e-5 z m 107.59303,0.651 c 0.43525,0 0.37272,-0.2141 2.02446,6.6705 1.81239,7.5543 3.38532,13.2619 7.94836,28.8495 3.87802,13.2473 4.02874,13.8416 3.68457,14.0933 -0.53521,0.3913 -25.8359,0.3914 -26.37118,0 -0.34677,-0.2536 -0.21297,-0.7723 3.31426,-13.0423 3.06583,-10.6648 3.93794,-13.9964 5.27907,-20.1368 2.43207,-11.1353 3.54387,-16.0937 3.65469,-16.273 0.055,-0.089 0.26599,-0.1612 0.46577,-0.1612 z"
           style="fill:url(#linearGradient4542);fill-opacity:1" />
      </g>
      <g
         transform="matrix(1.0154085,0,0,1,213.53074,135.05739)"
         id="g4479">
        <path
           sodipodi:type="arc"
           style="color:#000000;fill:url(#linearGradient4544);fill-opacity:1;fill-rule:evenodd;stroke:none;stroke-width:3.44105244;marker:none;visibility:visible;display:inline;overflow:visible;enable-background:accumulate"
           id="path3799"
           sodipodi:cx="19.79899"
           sodipodi:cy="693.15192"
           sodipodi:rx="93.338097"
           sodipodi:ry="93.338097"
           d="m 113.13709,693.15192 c 0,51.5492 -41.788892,93.33809 -93.3381,93.33809 -51.549207,0 -93.338096,-41.78889 -93.338096,-93.33809 0,-51.54921 41.788889,-93.3381 93.338096,-93.3381 51.549208,0 93.3381,41.78889 93.3381,93.3381 z"
           transform="matrix(0.93415883,0,0,0.94078761,-109.5354,-204.41127)" />
        <g
           transform="matrix(0.97566651,0,0,1,-2.5850171,6.363961)"
           id="g4490">
          <path
             id="path4297-2"
             d="m -145.26008,402.65938 52.933598,0 52.93363,0 0.0654,0.8599 c 0.15893,2.1762 -1.16367,8.6785 -2.38872,11.7404 -0.37768,0.944 -0.92921,2.4297 -1.22424,3.3025 -0.29493,0.8726 -0.69748,1.8202 -0.8957,2.1079 -0.19828,0.2878 -0.73371,1.2135 -1.18838,2.0543 -3.73958,6.915 -10.94746,14.2318 -18.54831,18.8289 -2.58018,1.5606 -6.85635,3.6152 -9.15469,4.3953 -0.99498,0.3376 -2.07041,0.8401 -2.38872,1.1167 -1.5789,1.3715 -3.75265,3.6913 -4.4967,4.8013 -0.45801,0.6832 -0.93531,1.302 -1.06298,1.3794 -0.41225,0.2499 -1.94394,4.0196 -2.31102,5.6911 -0.29315,1.3346 -0.35605,2.4057 -0.34641,6.0195 0.0104,4.0449 0.0556,4.5621 0.51359,6.4974 0.51233,2.166 2.5645,8.4074 3.48746,10.6057 0.93878,2.2359 4.04497,8.6691 4.75355,9.8415 0.83689,1.3847 0.86401,1.8589 0.14933,2.9859 -1.4753,2.3261 -6.55369,4.1379 -13.58579,4.843 -3.44733,0.3458 -5.36821,0.3444 -8.58144,-0.01 -3.29095,-0.3589 -5.355208,-0.7721 -7.578088,-1.5049 -1.05101,-0.3466 -2.13203,-0.6806 -2.4066,-0.7465 -0.81198,-0.1947 -2.7492,-1.5897 -3.2905,-2.3708 -1.00258,-1.4468 -1.03197,-1.3495 2.10213,-7.626 2.85083,-5.7092 3.18674,-6.5376 4.6221,-11.3403 1.21101,-4.0522 1.56088,-5.6053 1.77954,-7.9962 0.2745,-3.0005 0.11647,-7.7597 -0.3165,-9.5847 -0.73904,-3.1152 -2.58455,-6.4439 -4.96846,-8.9575 -1.6185,-1.7066 -3.15067,-2.7582 -5.06403,-3.4696 -5.43825,-2.0222 -11.16911,-5.218 -15.29363,-8.5337 -2.12838,-1.7109 -6.17581,-5.6527 -7.7753,-7.5722 -4.3045,-5.1655 -8.08214,-12.5614 -9.42338,-18.4467 -0.68176,-2.9916 -1.18155,-6.5704 -1.10475,-7.9066 l 0.0541,-1.0092 -9e-5,0 0,0 z"
             style="fill:#ffffff;fill-opacity:1" />
          <path
             id="path4291-4"
             d="m -27.491162,424.15168 c 3.6461,0.01 6.60854,0.041 6.81375,0.1194 0.23858,0.091 0.29862,0.4181 0.29862,1.5527 0,1.863 -1.43373,7.4369 -2.32305,9.0173 -2.95191,5.2459 -4.40917,7.055 -8.63512,10.7193 -3.14956,2.731 -6.05152,4.3816 -10.05648,5.7269 -2.49753,0.839 -2.59418,0.8921 -3.26654,1.7855 -1.01671,1.3512 -2.25618,3.8957 -2.47228,5.0761 -0.3232,1.7648 -0.22839,5.2177 0.20304,7.3511 0.86098,4.2585 1.81912,6.9187 4.00105,11.1255 1.34537,2.5938 1.38398,2.709 1.16448,3.374 -0.50524,1.531 -3.34935,2.8347 -7.37504,3.38 -4.79565,0.6497 -9.7436,0.1027 -12.85722,-1.4272 -1.3338,-0.6554 -2.52609,-1.8221 -2.52609,-2.4723 0,-0.1253 0.86289,-1.9168 1.91099,-3.9832 2.74713,-5.4164 4.02343,-9.847 4.06078,-14.0754 0.021,-2.3952 -0.30403,-3.8015 -1.41532,-6.1509 -1.17446,-2.483 -1.95386,-3.0678 -5.54774,-4.1683 -1.1378,-0.3484 -1.85776,-0.7011 -4.11452,-2.0244 -1.28593,-0.754 -1.08949,-0.9701 1.85725,-1.9707 3.42525,-1.1632 7.75586,-3.563 11.82405,-6.563 2.16628,-1.5975 7.40978,-6.6996 9.1845,-8.9337 1.54534,-1.9452 3.40107,-4.6884 4.09664,-6.0613 0.27767,-0.5481 0.66848,-1.0855 0.87191,-1.1944 0.24953,-0.1336 8.22539,-0.2126 14.30234,-0.203 z"
             style="fill:#ffffff;fill-opacity:1" />
          <path
             id="path2904-5"
             d="m -153.10697,424.16368 c 5.03189,-0.013 10.08991,0.025 10.33712,0.1193 0.17646,0.068 0.49228,0.5158 0.69868,0.9973 0.72853,1.6996 5.28686,7.8062 7.41692,9.9311 4.11598,4.1057 6.40624,5.8785 11.45976,8.8919 2.53669,1.5127 5.25951,2.7385 8.22313,3.6965 1.54698,0.5001 1.44826,0.862 -0.57927,2.0543 -1.14007,0.6704 -2.23791,1.1251 -3.63084,1.5049 -1.09812,0.2994 -2.1993,0.67 -2.44243,0.8241 -0.6829,0.4328 -1.84777,2.3883 -2.49621,4.1802 -0.81033,2.2396 -1.10165,4.5611 -0.83601,6.7182 0.24443,1.9852 1.07265,5.7883 1.61234,7.417 0.44656,1.3474 2.46995,5.6277 3.46958,7.3332 0.83258,1.4206 0.86818,1.8947 0.19107,2.6994 -1.0862,1.2908 -3.38519,2.2526 -6.58078,2.7529 -2.74545,0.4298 -5.03513,0.5025 -7.2438,0.221 -4.08131,-0.5203 -6.96374,-1.4824 -7.94238,-2.6456 -0.90347,-1.0736 -0.87049,-1.2194 1.23015,-5.4223 2.05275,-4.1072 2.60851,-5.5623 3.42179,-8.9517 0.42311,-1.7632 0.50564,-2.5333 0.50166,-4.7774 -0.007,-3.1439 -0.29539,-4.4687 -1.41531,-6.545 -1.40112,-2.5977 -1.99881,-3.0611 -5.04609,-3.9055 -3.6657,-1.0158 -8.59887,-4.315 -13.09017,-8.7547 -2.25869,-2.2327 -4.4782,-5.6638 -5.86421,-9.0651 -1.15039,-2.8231 -2.17705,-8.7304 -1.58253,-9.1069 0.1514,-0.096 5.15594,-0.1545 10.18783,-0.1671 z"
             style="fill:#ffffff;fill-opacity:1" />
        </g>
        <path
           sodipodi:type="arc"
           style="opacity:0.92035403;color:#000000;fill:none;stroke:url(#linearGradient4546);stroke-width:10.18277931;stroke-miterlimit:4;stroke-dasharray:none;marker:none;visibility:visible;display:inline;overflow:visible;filter:url(#filter4527);enable-background:accumulate"
           id="path3799-2"
           sodipodi:cx="19.79899"
           sodipodi:cy="693.15192"
           sodipodi:rx="93.338097"
           sodipodi:ry="93.338097"
           d="m 113.13709,693.15192 c 0,51.5492 -41.788892,93.33809 -93.3381,93.33809 -51.549207,0 -93.338096,-41.78889 -93.338096,-93.33809 0,-51.54921 41.788889,-93.3381 93.338096,-93.3381 51.549208,0 93.3381,41.78889 93.3381,93.3381 z"
           transform="matrix(0.8967027,0,0,0.90685378,-108.52865,-178.50345)" />
      </g>
    </g>
  </g>
</svg>
