<?xml version="1.0" encoding="UTF-8"?>
<svg width="130px" height="130px" viewBox="0 0 130 130" version="1.1" xmlns="http://www.w3.org/2000/svg" xmlns:xlink="http://www.w3.org/1999/xlink">
    <!-- Generator: Sketch 48.2 (47327) - http://www.bohemiancoding.com/sketch -->
    <title>Fill 1</title>
    <desc>Created with Sketch.</desc>
    <defs></defs>
    <g id="Page-1" stroke="none" stroke-width="1" fill="none" fill-rule="evenodd">
        <g id="1_Grails_RGB" fill="#FEB672">
            <path d="M64.571,25.88 L66.568,30.936 L62.595,30.936 L64.571,25.88 Z M51.752,26.286 C51.752,26.724 51.654,27.065 51.466,27.308 C51.276,27.55 51.036,27.727 50.749,27.84 C50.471,27.952 50.153,28.018 49.81,28.043 C49.47,28.062 49.147,28.075 48.849,28.075 L46.784,28.075 L46.784,24.439 L49.063,24.439 C49.364,24.439 49.678,24.459 49.999,24.506 C50.322,24.545 50.613,24.635 50.864,24.756 C51.12,24.886 51.336,25.075 51.499,25.315 C51.667,25.556 51.752,25.888 51.752,26.286 Z M112.984,71.171 C112.184,72.166 110.137,74.177 109.094,74.992 C108.157,75.725 106.762,76.645 105.691,77.237 C104.851,77.701 102.715,78.501 102.045,78.858 C101.15,79.335 99.763,80.379 98.985,81.577 C98.41,82.467 97.874,83.678 97.701,84.473 C97.591,84.973 97.543,85.707 97.549,86.565 C97.571,88.572 97.919,91.239 98.607,93.07 C99.391,95.148 99.818,95.839 100.721,97.944 C101.104,98.835 101.464,99.685 101.641,100.099 C101.711,100.262 101.691,100.45 101.593,100.599 C101.351,100.966 100.815,101.657 99.923,102.137 C98.365,102.978 95.093,103.281 93.468,103.291 L93.461,103.291 C91.836,103.281 88.562,102.978 87.006,102.137 C86.111,101.657 85.576,100.966 85.335,100.599 C85.236,100.45 85.216,100.262 85.286,100.099 C85.461,99.685 85.821,98.835 86.205,97.944 C87.109,95.839 87.536,95.148 88.32,93.07 C89.009,91.239 89.356,88.572 89.378,86.565 C89.384,85.707 89.335,84.973 89.227,84.473 C89.054,83.678 88.517,82.467 87.942,81.577 C87.164,80.379 85.778,79.335 84.884,78.858 C84.4,78.6 83.154,78.115 82.184,77.686 C81.785,77.513 81.82,76.947 82.23,76.806 C92.23,73.343 99.808,66.978 102.712,59.282 C102.785,59.091 102.969,58.964 103.171,58.967 C113.501,58.984 116.458,59.051 117.278,59.079 C117.444,59.088 117.568,59.235 117.548,59.398 C117.438,60.362 117.468,61.639 116.619,64.626 C115.933,67.035 114.518,69.267 112.984,71.171 Z M73.081,99.588 C74.352,102.964 75.046,104.082 76.515,107.505 C77.136,108.95 77.722,110.331 78.007,110.998 C78.122,111.268 78.09,111.568 77.93,111.816 C77.538,112.413 76.664,113.533 75.216,114.313 C72.69,115.678 67.373,116.172 64.733,116.182 L64.724,116.182 C62.084,116.172 56.767,115.678 54.241,114.313 C52.794,113.533 51.923,112.413 51.529,111.816 C51.369,111.568 51.339,111.268 51.453,110.998 C51.738,110.331 52.321,108.95 52.942,107.505 C54.412,104.082 55.105,102.964 56.377,99.588 C57.498,96.616 58.06,92.286 58.095,89.023 C58.108,87.635 58.025,86.441 57.85,85.626 C57.569,84.339 56.697,82.378 55.763,80.929 C54.502,78.978 52.248,77.29 50.799,76.516 C49.704,75.932 46.238,74.634 44.874,73.88 C43.136,72.922 40.871,71.425 39.351,70.238 C37.658,68.914 34.332,65.65 33.034,64.033 C30.54,60.939 28.242,57.313 27.13,53.406 C25.753,48.556 25.805,46.484 25.621,44.917 C25.591,44.646 25.792,44.409 26.06,44.399 C27.741,44.338 34.926,44.182 64.73,44.212 C94.532,44.182 101.718,44.338 103.398,44.399 C103.669,44.409 103.87,44.646 103.836,44.917 C103.653,46.484 103.706,48.556 102.329,53.406 C101.216,57.313 98.919,60.939 96.425,64.033 C95.126,65.65 91.801,68.914 90.108,70.238 C88.587,71.425 86.322,72.922 84.584,73.88 C83.219,74.634 79.753,75.932 78.661,76.516 C77.209,77.29 74.957,78.978 73.694,80.929 C72.76,82.378 71.89,84.339 71.609,85.626 C71.433,86.441 71.353,87.635 71.366,89.023 C71.397,92.286 71.961,96.616 73.081,99.588 Z M47.651,77.686 C46.679,78.115 45.436,78.6 44.951,78.858 C44.056,79.335 42.67,80.379 41.893,81.577 C41.317,82.467 40.781,83.678 40.607,84.473 C40.5,84.973 40.448,85.707 40.458,86.565 C40.48,88.572 40.826,91.239 41.515,93.07 C42.298,95.148 42.725,95.839 43.629,97.944 C44.013,98.835 44.373,99.685 44.547,100.099 C44.621,100.262 44.599,100.45 44.5,100.599 C44.26,100.966 43.721,101.657 42.829,102.137 C41.274,102.978 37.998,103.281 36.373,103.291 L36.367,103.291 C34.744,103.281 31.47,102.978 29.913,102.137 C29.021,101.657 28.483,100.966 28.243,100.599 C28.143,100.45 28.124,100.262 28.193,100.099 C28.37,99.685 28.731,98.835 29.114,97.944 C30.018,95.839 30.445,95.148 31.229,93.07 C31.918,91.239 32.265,88.572 32.283,86.565 C32.293,85.707 32.243,84.973 32.133,84.473 C31.96,83.678 31.424,82.467 30.849,81.577 C30.072,80.379 28.684,79.335 27.791,78.858 C27.119,78.501 24.984,77.701 24.143,77.237 C23.072,76.645 21.678,75.725 20.742,74.992 C19.699,74.177 17.651,72.166 16.851,71.171 C15.316,69.267 13.901,67.035 13.217,64.626 C12.367,61.639 12.398,60.362 12.287,59.398 C12.267,59.235 12.39,59.088 12.557,59.079 C13.377,59.051 16.335,58.984 26.664,58.967 C26.867,58.964 27.049,59.091 27.123,59.282 C30.028,66.978 37.606,73.343 47.606,76.806 C48.015,76.947 48.05,77.513 47.651,77.686 Z M26.868,26.017 C27.268,25.044 27.837,24.205 28.559,23.521 C29.277,22.837 30.143,22.306 31.131,21.935 C32.122,21.568 33.219,21.382 34.393,21.382 C35.598,21.382 36.722,21.531 37.736,21.819 C38.714,22.099 39.59,22.586 40.338,23.261 L38.092,25.712 C37.644,25.265 37.131,24.92 36.576,24.681 C35.995,24.431 35.26,24.311 34.393,24.311 C33.668,24.311 33.002,24.431 32.414,24.681 C31.823,24.93 31.311,25.279 30.888,25.722 C30.466,26.169 30.14,26.703 29.914,27.311 C29.689,27.921 29.578,28.59 29.578,29.3 C29.578,30.023 29.689,30.695 29.914,31.3 C30.14,31.901 30.467,32.432 30.888,32.878 C31.311,33.319 31.823,33.669 32.414,33.918 C33.001,34.165 33.668,34.289 34.393,34.289 C35.131,34.289 35.773,34.206 36.312,34.038 C36.818,33.88 37.234,33.718 37.548,33.552 L37.571,33.54 L37.606,33.506 L37.64,33.446 L37.64,30.889 L34.91,30.889 L34.91,27.965 L40.696,27.965 L40.696,35.788 C39.726,36.287 38.705,36.652 37.666,36.873 C36.602,37.103 35.5,37.214 34.393,37.214 C33.219,37.214 32.122,37.03 31.131,36.662 C30.143,36.296 29.277,35.76 28.559,35.077 C27.84,34.396 27.268,33.552 26.868,32.578 C26.465,31.606 26.26,30.503 26.26,29.3 C26.26,28.099 26.465,26.995 26.868,26.017 Z M43.6,21.771 L49.407,21.771 C50.17,21.771 50.906,21.845 51.595,21.996 C52.274,22.139 52.88,22.391 53.392,22.735 C53.901,23.079 54.311,23.544 54.611,24.124 C54.912,24.703 55.064,25.442 55.064,26.31 C55.064,27.36 54.789,28.266 54.243,29.003 C53.72,29.708 52.952,30.166 51.962,30.374 L51.727,30.423 L55.578,36.829 L51.76,36.829 L48.578,30.743 L46.784,30.743 L46.784,36.829 L43.6,36.829 L43.6,21.771 Z M63.337,21.771 L65.999,21.771 L72.549,36.829 L68.952,36.829 L67.641,33.599 L61.607,33.599 L60.338,36.829 L56.829,36.829 L63.337,21.771 Z M74.51,36.829 L77.692,36.829 L77.692,21.771 L74.51,21.771 L74.51,36.829 Z M81.439,21.771 L84.623,21.771 L84.623,33.9 L90.84,33.9 L90.84,36.829 L81.439,36.829 L81.439,21.771 Z M99.332,31.459 C98.98,31.186 98.525,30.957 97.986,30.768 C97.455,30.582 96.877,30.391 96.262,30.207 C95.658,30.023 95.083,29.773 94.561,29.461 C94.044,29.156 93.609,28.742 93.264,28.24 C92.925,27.74 92.752,27.07 92.752,26.245 C92.752,25.445 92.912,24.733 93.226,24.136 C93.543,23.531 93.969,23.019 94.495,22.615 C95.023,22.206 95.641,21.896 96.326,21.691 C97.019,21.487 97.743,21.382 98.474,21.382 C99.324,21.382 100.157,21.506 100.947,21.745 C101.706,21.979 102.405,22.365 103.02,22.896 L100.846,25.275 C100.572,24.958 100.207,24.716 99.762,24.562 C99.29,24.394 98.834,24.311 98.411,24.311 C98.163,24.311 97.903,24.337 97.639,24.397 C97.376,24.456 97.124,24.548 96.887,24.674 C96.648,24.803 96.446,24.974 96.297,25.183 C96.143,25.398 96.066,25.662 96.066,25.963 C96.066,26.459 96.246,26.825 96.619,27.089 C96.966,27.337 97.412,27.553 97.944,27.723 C98.466,27.896 99.035,28.072 99.633,28.24 C100.226,28.411 100.786,28.654 101.301,28.962 C101.814,29.27 102.243,29.692 102.575,30.207 C102.911,30.721 103.08,31.419 103.08,32.291 C103.08,33.117 102.923,33.85 102.613,34.469 C102.306,35.086 101.884,35.604 101.358,36.008 C100.832,36.411 100.21,36.721 99.518,36.916 C98.815,37.116 98.066,37.214 97.292,37.214 C96.319,37.214 95.4,37.066 94.567,36.769 C93.759,36.48 92.998,36.015 92.294,35.38 L94.554,32.896 C94.894,33.326 95.324,33.667 95.822,33.908 C96.356,34.158 96.916,34.289 97.485,34.289 C97.766,34.289 98.05,34.256 98.332,34.192 C98.618,34.126 98.876,34.021 99.109,33.893 C99.342,33.757 99.53,33.58 99.676,33.372 C99.821,33.157 99.895,32.898 99.895,32.612 C99.895,32.118 99.709,31.742 99.332,31.459 Z M64.918,0.169 C29.066,0.169 0,29.23 0,65.084 C0,100.936 29.066,130 64.918,130 C100.771,130 129.835,100.936 129.835,65.084 C129.835,29.23 100.771,0.169 64.918,0.169 Z" id="Fill-1"></path>
        </g>
    </g>
</svg>