<?xml version="1.0" encoding="utf-8"?>
<!-- Generator: Adobe Illustrator 25.2.1, SVG Export Plug-In . SVG Version: 6.00 Build 0)  -->
<svg version="1.1" id="Ebene_1" xmlns="http://www.w3.org/2000/svg" xmlns:xlink="http://www.w3.org/1999/xlink" x="0px" y="0px"
	 viewBox="0 0 86.5 86.5" style="enable-background:new 0 0 86.5 86.5;" xml:space="preserve">
<style type="text/css">
	.st0{fill:#FEB571;}
	.st1{fill:#FFFFFF;}
</style>
<g>
	<path class="st0" d="M86.5,43.2c0,23.9-19.4,43.2-43.2,43.2C19.4,86.5,0,67.1,0,43.2C0,19.4,19.4,0,43.2,0
		C67.1,0,86.5,19.4,86.5,43.2"/>
	<g>
		<path class="st1" d="M8.3,39.6c0.5,0,2.5-0.1,9.3-0.1c0.1,0,0.3,0.1,0.3,0.2c1.9,5.1,6.9,9.3,13.6,11.6c0.3,0.1,0.3,0.5,0,0.6
			c-0.6,0.3-1.5,0.6-1.8,0.8c-0.6,0.3-1.5,1-2,1.8c-0.4,0.6-0.7,1.4-0.9,1.9c-0.1,0.3-0.1,0.8-0.1,1.4c0,1.3,0.2,3.1,0.7,4.3
			c0.5,1.4,0.8,1.8,1.4,3.2c0.3,0.6,0.5,1.2,0.6,1.4c0,0.1,0,0.2,0,0.3c-0.2,0.2-0.5,0.7-1.1,1c-1,0.6-3.2,0.8-4.3,0.8h0
			c-1.1,0-3.2-0.2-4.3-0.8c-0.6-0.3-0.9-0.8-1.1-1c-0.1-0.1-0.1-0.2,0-0.3c0.1-0.3,0.4-0.8,0.6-1.4c0.6-1.4,0.9-1.8,1.4-3.2
			c0.5-1.2,0.7-3,0.7-4.3c0-0.6,0-1.1-0.1-1.4c-0.1-0.5-0.5-1.3-0.8-1.9c-0.5-0.8-1.4-1.5-2-1.8c-0.4-0.2-1.9-0.8-2.4-1.1
			c-0.7-0.4-1.6-1-2.3-1.5c-0.7-0.5-2-1.9-2.6-2.5c-1-1.3-2-2.7-2.4-4.3c-0.6-2-0.5-2.8-0.6-3.5C8.1,39.7,8.2,39.6,8.3,39.6"/>
		<path class="st1" d="M68.4,29.9c-1.1,0-5.9-0.1-25.6-0.1c-19.7,0-24.5,0.1-25.6,0.1c-0.2,0-0.3,0.2-0.3,0.3c0.1,1,0.1,2.4,1,5.6
			c0.7,2.6,2.3,5,3.9,7c0.9,1.1,3.1,3.2,4.2,4.1c1,0.8,2.5,1.8,3.7,2.4c0.9,0.5,3.2,1.4,3.9,1.7c1,0.5,2.4,1.6,3.3,2.9
			c0.6,1,1.2,2.3,1.4,3.1c0.1,0.5,0.2,1.3,0.2,2.2c0,2.2-0.4,5-1.1,7c-0.8,2.2-1.3,3-2.3,5.2c-0.4,1-0.8,1.9-1,2.3
			c-0.1,0.2-0.1,0.4,0.1,0.5c0.3,0.4,0.8,1.1,1.8,1.7c1.7,0.9,5.2,1.2,6.9,1.2h0c1.7,0,5.3-0.3,6.9-1.2c1-0.5,1.5-1.3,1.8-1.7
			c0.1-0.2,0.1-0.4,0.1-0.5c-0.2-0.4-0.6-1.4-1-2.3c-1-2.3-1.4-3-2.3-5.2c-0.7-2-1.1-4.8-1.1-7c0-0.9,0-1.7,0.2-2.2
			c0.2-0.9,0.8-2.1,1.4-3.1c0.8-1.3,2.3-2.4,3.3-2.9c0.7-0.4,3-1.2,3.9-1.7c1.1-0.6,2.6-1.6,3.7-2.4c1.1-0.9,3.3-3,4.2-4.1
			c1.6-2,3.2-4.4,3.9-7c0.9-3.2,0.9-4.6,1-5.6C68.7,30.1,68.6,29.9,68.4,29.9"/>
		<path class="st1" d="M77.6,39.6c-0.5,0-2.5-0.1-9.3-0.1c-0.1,0-0.3,0.1-0.3,0.2C66,44.9,61,49.1,54.4,51.4c-0.3,0.1-0.3,0.5,0,0.6
			c0.6,0.3,1.5,0.6,1.8,0.8c0.6,0.3,1.5,1,2,1.8c0.4,0.6,0.7,1.4,0.9,1.9c0.1,0.3,0.1,0.8,0.1,1.4c0,1.3-0.2,3.1-0.7,4.3
			c-0.5,1.4-0.8,1.8-1.4,3.2c-0.3,0.6-0.5,1.2-0.6,1.4c0,0.1,0,0.2,0,0.3c0.2,0.2,0.5,0.7,1.1,1c1,0.6,3.2,0.8,4.3,0.8h0
			c1.1,0,3.2-0.2,4.3-0.8c0.6-0.3,0.9-0.8,1.1-1c0.1-0.1,0.1-0.2,0-0.3c-0.1-0.3-0.4-0.8-0.6-1.4c-0.6-1.4-0.9-1.8-1.4-3.2
			c-0.5-1.2-0.7-3-0.7-4.3c0-0.6,0-1.1,0.1-1.4c0.1-0.5,0.5-1.3,0.8-1.9c0.5-0.8,1.4-1.5,2-1.8c0.4-0.2,1.9-0.8,2.4-1.1
			c0.7-0.4,1.6-1,2.3-1.5c0.7-0.5,2-1.9,2.6-2.5c1-1.3,2-2.7,2.4-4.3c0.6-2,0.5-2.8,0.6-3.5C77.7,39.7,77.7,39.6,77.6,39.6"/>
	</g>
	<path class="st1" d="M22.5,25.8c-0.8,0-1.5-0.1-2.2-0.4c-0.7-0.2-1.2-0.6-1.7-1.1c-0.5-0.5-0.9-1-1.1-1.7C17.2,22,17,21.3,17,20.5
		c0-0.8,0.1-1.6,0.4-2.2c0.3-0.7,0.7-1.2,1.1-1.7c0.5-0.5,1.1-0.8,1.7-1.1c0.7-0.2,1.4-0.4,2.2-0.4c0.8,0,1.6,0.1,2.3,0.3
		c0.7,0.2,1.2,0.5,1.8,1L25,18.1c-0.3-0.3-0.6-0.5-1-0.7c-0.4-0.2-0.9-0.2-1.5-0.2c-0.5,0-0.9,0.1-1.3,0.2c-0.4,0.2-0.7,0.4-1,0.7
		c-0.3,0.3-0.5,0.7-0.7,1.1c-0.2,0.4-0.2,0.9-0.2,1.3c0,0.5,0.1,0.9,0.2,1.3c0.2,0.4,0.4,0.8,0.7,1.1c0.3,0.3,0.6,0.5,1,0.7
		c0.4,0.2,0.8,0.2,1.3,0.2c0.5,0,0.9-0.1,1.3-0.2c0.3-0.1,0.6-0.2,0.8-0.3l0,0l0,0l0,0v-1.7h-1.8v-2h3.9v5.3c-0.7,0.3-1.3,0.6-2,0.7
		C24,25.7,23.3,25.8,22.5,25.8"/>
	<path class="st1" d="M30.9,19.7h1.4c0.2,0,0.4,0,0.6,0c0.2,0,0.4-0.1,0.6-0.1c0.2-0.1,0.4-0.2,0.5-0.4c0.1-0.2,0.2-0.4,0.2-0.7
		c0-0.3-0.1-0.5-0.2-0.7c-0.1-0.2-0.3-0.3-0.4-0.4c-0.2-0.1-0.4-0.1-0.6-0.2c-0.2,0-0.4,0-0.6,0h-1.5V19.7z M34.2,25.6l-2.1-4.1
		h-1.2v4.1h-2.1V15.4h3.9c0.5,0,1,0,1.5,0.2c0.5,0.1,0.9,0.3,1.2,0.5c0.3,0.2,0.6,0.5,0.8,0.9s0.3,0.9,0.3,1.5
		c0,0.7-0.2,1.3-0.6,1.8c-0.4,0.5-0.9,0.8-1.5,0.9l-0.2,0l2.6,4.3H34.2z"/>
	<path class="st1" d="M41.5,21.6h2.7l-1.3-3.4L41.5,21.6z M45.8,25.6l-0.9-2.2h-4.1L40,25.6h-2.4L42,15.4h1.8l4.4,10.1H45.8z"/>
	<rect x="49.5" y="15.4" class="st1" width="2.1" height="10.1"/>
	<polygon class="st1" points="54.2,25.6 54.2,15.4 56.4,15.4 56.4,23.6 60.5,23.6 60.5,25.6 	"/>
	<path class="st1" d="M64.9,25.8c-0.7,0-1.3-0.1-1.8-0.3c-0.5-0.2-1.1-0.5-1.5-0.9l1.5-1.7c0.2,0.3,0.5,0.5,0.9,0.7
		c0.4,0.2,0.7,0.3,1.1,0.3c0.2,0,0.4,0,0.6-0.1c0.2,0,0.4-0.1,0.5-0.2c0.2-0.1,0.3-0.2,0.4-0.4c0.1-0.1,0.1-0.3,0.1-0.5
		c0-0.3-0.1-0.6-0.4-0.8c-0.2-0.2-0.5-0.3-0.9-0.5c-0.4-0.1-0.7-0.3-1.2-0.4c-0.4-0.1-0.8-0.3-1.1-0.5c-0.3-0.2-0.6-0.5-0.9-0.8
		c-0.2-0.3-0.3-0.8-0.3-1.3c0-0.5,0.1-1,0.3-1.4c0.2-0.4,0.5-0.8,0.9-1c0.4-0.3,0.8-0.5,1.2-0.6c0.5-0.1,1-0.2,1.4-0.2
		c0.6,0,1.1,0.1,1.7,0.2c0.5,0.2,1,0.4,1.4,0.8l-1.5,1.6c-0.2-0.2-0.4-0.4-0.7-0.5c-0.3-0.1-0.6-0.2-0.9-0.2c-0.2,0-0.3,0-0.5,0.1
		c-0.2,0-0.3,0.1-0.5,0.2c-0.2,0.1-0.3,0.2-0.4,0.3c-0.1,0.1-0.2,0.3-0.2,0.5c0,0.3,0.1,0.6,0.4,0.8c0.2,0.2,0.5,0.3,0.9,0.4
		c0.4,0.1,0.7,0.2,1.1,0.3c0.4,0.1,0.8,0.3,1.1,0.5c0.3,0.2,0.6,0.5,0.9,0.8c0.2,0.3,0.3,0.8,0.3,1.4c0,0.6-0.1,1.1-0.3,1.5
		c-0.2,0.4-0.5,0.8-0.8,1c-0.4,0.3-0.8,0.5-1.2,0.6C65.9,25.8,65.4,25.8,64.9,25.8"/>
	<path class="st1" d="M70.2,16.7c0-0.3,0.1-0.6,0.2-0.8s0.3-0.5,0.6-0.6c0.3-0.1,0.5-0.2,0.8-0.2s0.6,0.1,0.8,0.2
		c0.3,0.1,0.4,0.3,0.6,0.6s0.2,0.5,0.2,0.8c0,0.3-0.1,0.6-0.2,0.8c-0.1,0.3-0.3,0.5-0.6,0.6c-0.3,0.1-0.5,0.2-0.8,0.2
		c-0.3,0-0.6-0.1-0.8-0.2c-0.3-0.1-0.4-0.3-0.6-0.6C70.3,17.3,70.2,17,70.2,16.7z M73.2,16.7c0-0.2-0.1-0.5-0.2-0.7
		c-0.1-0.2-0.3-0.4-0.5-0.5c-0.2-0.1-0.4-0.2-0.7-0.2c-0.2,0-0.5,0.1-0.7,0.2c-0.2,0.1-0.4,0.3-0.5,0.5c-0.1,0.2-0.2,0.4-0.2,0.7
		c0,0.3,0.1,0.5,0.2,0.7c0.1,0.2,0.3,0.4,0.5,0.5c0.2,0.1,0.4,0.2,0.7,0.2s0.5-0.1,0.7-0.2c0.2-0.1,0.4-0.3,0.5-0.5
		C73.1,17.2,73.2,17,73.2,16.7z M71.5,16.9v0.7h-0.3v-1.9h0.6c0.2,0,0.4,0,0.5,0.1s0.2,0.2,0.2,0.4c0,0.2-0.1,0.3-0.3,0.4
		c0.1,0,0.2,0.1,0.2,0.2c0,0.1,0.1,0.2,0.1,0.3c0,0.1,0,0.2,0,0.3c0,0.1,0,0.1,0,0.1v0h-0.4c0-0.1,0-0.2,0-0.4c0-0.1,0-0.2-0.1-0.2
		c-0.1,0-0.1-0.1-0.3-0.1H71.5z M71.5,16.6h0.3c0.1,0,0.2,0,0.3-0.1c0.1,0,0.1-0.1,0.1-0.2c0-0.1,0-0.2-0.1-0.2
		c-0.1,0-0.2-0.1-0.3-0.1h-0.3V16.6z"/>
</g>
</svg>
