<?xml version="1.0" encoding="UTF-8" ?>
<!DOCTYPE svg PUBLIC "-//W3C//DTD SVG 1.1//EN" "http://www.w3.org/Graphics/SVG/1.1/DTD/svg11.dtd">
<svg width="171pt" height="171pt" viewBox="0 0 171 171" version="1.1" xmlns="http://www.w3.org/2000/svg">
<path fill="#ffffff" d=" M 0.00 0.00 L 79.81 0.00 C 61.92 1.27 44.45 8.15 30.72 19.73 C 12.78 34.49 1.46 56.85 0.00 80.03 L 0.00 0.00 Z" />
<path fill="#7ebd50" d=" M 79.81 0.00 L 93.32 0.00 C 112.58 2.02 131.29 10.18 145.19 23.78 C 159.44 37.34 168.65 55.96 171.00 75.47 L 171.00 96.35 C 168.80 112.76 162.04 128.58 151.25 141.18 C 137.45 157.64 117.25 168.46 95.93 171.00 L 75.99 171.00 C 56.74 168.91 38.33 159.98 24.75 146.18 C 10.35 131.86 1.56 112.24 0.00 92.03 L 0.00 80.03 C 1.46 56.85 12.78 34.49 30.72 19.73 C 44.45 8.15 61.92 1.27 79.81 0.00 Z" />
<path fill="#ffffff" d=" M 93.32 0.00 L 171.00 0.00 L 171.00 75.47 C 168.65 55.96 159.44 37.34 145.19 23.78 C 131.29 10.18 112.58 2.02 93.32 0.00 Z" />
<path fill="#ffffff" d=" M 32.90 51.24 C 68.11 51.28 103.32 51.22 138.54 51.28 C 135.32 66.05 125.14 78.65 112.03 85.94 C 107.01 89.28 100.14 90.35 96.92 95.94 C 93.74 101.72 94.10 108.59 93.99 114.98 C 94.16 119.90 93.41 125.07 95.20 129.78 C 97.36 133.50 101.88 135.62 103.01 140.00 C 103.28 142.90 100.13 144.31 97.77 144.83 C 90.60 146.36 83.12 146.32 75.89 145.18 C 73.15 144.63 69.68 143.77 68.71 140.76 C 69.06 134.87 76.48 132.89 77.00 127.11 C 78.10 120.77 77.06 114.35 77.24 107.97 C 77.15 101.79 75.60 94.50 69.75 91.23 C 64.07 88.33 58.18 85.75 53.09 81.82 C 42.91 74.53 35.67 63.44 32.90 51.24 Z" />
<path fill="#ffffff" d=" M 8.50 67.77 C 17.13 67.75 25.77 67.75 34.40 67.77 C 40.08 77.69 48.86 85.47 58.81 90.96 C 56.47 92.16 53.95 93.09 51.86 94.72 C 48.71 97.48 48.31 101.99 48.24 105.91 C 48.31 109.79 47.93 113.73 48.57 117.58 C 49.18 121.26 54.62 122.71 53.87 126.76 C 49.87 130.27 43.87 129.09 38.96 129.14 C 36.45 128.82 31.67 128.59 32.01 125.07 C 33.26 121.66 37.60 119.93 37.40 115.91 C 37.53 110.33 37.94 104.63 36.61 99.16 C 35.79 95.09 31.78 93.25 28.39 91.68 C 18.64 87.15 10.89 78.35 8.50 67.77 Z" />
<path fill="#ffffff" d=" M 112.58 90.90 C 122.59 85.53 131.30 77.63 137.02 67.76 C 145.62 67.75 154.23 67.75 162.83 67.76 C 161.05 75.49 156.55 82.54 150.17 87.26 C 146.73 90.04 142.66 91.81 138.79 93.85 C 135.25 95.81 134.18 100.17 134.05 103.92 C 134.03 107.94 133.69 111.97 133.99 115.99 C 134.06 120.26 138.59 122.20 139.92 125.98 C 136.48 130.02 130.66 129.15 125.93 129.25 C 123.02 128.93 118.74 129.26 117.36 126.04 C 117.78 122.00 123.30 120.46 123.06 116.08 C 123.38 110.31 123.65 104.36 122.14 98.74 C 120.99 94.24 116.23 92.80 112.58 90.90 Z" />
<path fill="#ffffff" d=" M 0.00 92.03 C 1.56 112.24 10.35 131.86 24.75 146.18 C 38.33 159.98 56.74 168.91 75.99 171.00 L 0.00 171.00 L 0.00 92.03 Z" />
<path fill="#ffffff" d=" M 151.25 141.18 C 162.04 128.58 168.80 112.76 171.00 96.35 L 171.00 171.00 L 95.93 171.00 C 117.25 168.46 137.45 157.64 151.25 141.18 Z" />
</svg>
